Coordinates
version=1
nRows=17
nColumns=24
inDegrees=yes

Units are S.I. units (second, meters, Newtons, ...)
Angles are in degrees.

endheader
time	pelvis_tilt	pelvis_list	pelvis_rotation	pelvis_tx	pelvis_ty	pelvis_tz	hip_flexion_r	hip_adduction_r	hip_rotation_r	knee_angle_r	ankle_angle_r	subtalar_angle_r	mtp_angle_r	hip_flexion_l	hip_adduction_l	hip_rotation_l	knee_angle_l	ankle_angle_l	subtalar_angle_l	mtp_angle_l	lumbar_extension	lumbar_bending	lumbar_rotation
      4.63000000	     10.85284891	     11.85154024	      3.12851199	      0.67708558	      0.75393894	     -0.28042786	     11.46963712	    -12.85625346	     -0.68122922	    -62.98346888	     20.19862045	    -13.00264751	      0.00000000	     -4.89383365	     17.34872120	      8.67905272	    -15.49416215	     22.42215997	      3.13209069	      0.00000000	    -32.55770816	     -8.06973559	     -1.10735790
      4.63500000	     10.82761564	     11.94163079	      3.36144760	      0.68390068	      0.75421342	     -0.28073106	     12.41087473	    -12.94805375	     -0.57401069	    -61.95468531	     20.74039945	    -12.90182783	      0.00000000	     -5.74933449	     17.36172600	      9.05027913	    -15.02933099	     22.64768848	      3.21457639	      0.00000000	    -32.68448394	     -7.98257568	     -1.78520780
      4.64000000	     10.81751429	     12.04392620	      3.63882835	      0.69070887	      0.75442850	     -0.28109215	     13.27466127	    -13.07765511	     -0.50767966	    -60.81379056	     21.20681703	    -12.68844447	      0.00000000	     -6.62819067	     17.37290923	      9.47202279	    -14.56974351	     22.87051773	      3.33720756	      0.00000000	    -32.83333419	     -7.87555248	     -2.50967608
      4.64500000	     10.83401065	     12.15851971	      3.93543797	      0.69751761	      0.75459710	     -0.28143832	     14.05248353	    -13.23849201	     -0.47854541	    -59.55853488	     21.60598298	    -12.40855760	      0.00000000	     -7.54044055	     17.37746648	      9.92340033	    -14.11493152	     23.08941115	      3.46105368	      0.00000000	    -33.01952582	     -7.77828792	     -3.25961963
      4.65000000	     10.84272741	     12.31020625	      4.25777714	      0.70434024	      0.75466928	     -0.28178578	     14.78161639	    -13.45772267	     -0.48204316	    -58.19922411	     21.96688108	    -12.19110402	      0.00000000	     -8.44240508	     17.40007093	     10.32306440	    -13.68100597	     23.32867178	      3.65701395	      0.00000000	    -33.20006670	     -7.71149678	     -4.04797943
      4.65500000	     10.87102656	     12.47904812	      4.61181493	      0.71118857	      0.75469022	     -0.28214279	     15.41943070	    -13.72308443	     -0.55418801	    -56.72669367	     22.29836847	    -11.94587839	      0.00000000	     -9.37835464	     17.41602895	     10.71978212	    -13.24492410	     23.58180067	      3.88135093	      0.00000000	    -33.40562241	     -7.65192710	     -4.86256702
      4.66000000	     10.89053987	     12.68139862	      4.98176619	      0.71801427	      0.75462453	     -0.28248073	     16.01663130	    -14.03009630	     -0.62199460	    -55.16400453	     22.55673173	    -11.72919072	      0.00000000	    -10.29520846	     17.44713016	     11.08910369	    -12.84061422	     23.83583457	      4.18323304	      0.00000000	    -33.61395255	     -7.62103616	     -5.72393816
      4.66500000	     10.92720308	     12.89814551	      5.37957314	      0.72487598	      0.75451187	     -0.28282722	     16.52013538	    -14.37898900	     -0.76295953	    -53.48974879	     22.80352164	    -11.48491970	      0.00000000	    -11.24840794	     17.46581292	     11.44529630	    -12.42554620	     24.10450882	      4.51755400	      0.00000000	    -33.84110419	     -7.59467305	     -6.58988390
      4.67000000	     10.96694703	     13.13777366	      5.79049598	      0.73174448	      0.75433625	     -0.28314456	     16.95761921	    -14.76152481	     -0.92972903	    -51.71930784	     23.02160417	    -11.23458354	      0.00000000	    -12.20808611	     17.48433684	     11.77326665	    -12.01910798	     24.37039511	      4.89717537	      0.00000000	    -34.07994912	     -7.59392900	     -7.47287357
      4.67500000	     10.96521702	     13.43525844	      6.21034418	      0.73859486	      0.75403979	     -0.28343660	     17.39785034	    -15.21137631	     -1.08460369	    -49.88599929	     23.17250159	    -11.04114774	      0.00000000	    -13.11482122	     17.54927237	     12.03965078	    -11.64806174	     24.62302464	      5.33255260	      0.00000000	    -34.28902039	     -7.65806430	     -8.40055897
      4.68000000	     11.03255500	     13.66704549	      6.66433756	      0.74550865	      0.75378650	     -0.28375439	     17.64895081	    -15.61028319	     -1.34798851	    -47.90494402	     23.36123053	    -10.62036493	      0.00000000	    -14.11501090	     17.50777986	     12.35801427	    -11.25644929	     24.93020068	      5.81083875	      0.00000000	    -34.55700691	     -7.62582024	     -9.26981904
      4.68500000	     11.03071231	     13.98436963	      7.11756599	      0.75239128	      0.75338291	     -0.28399705	     17.94759757	    -16.09449408	     -1.57672911	    -45.89259904	     23.47609315	    -10.30786040	      0.00000000	    -15.02640520	     17.54636067	     12.58475238	    -10.91128174	     25.19522225	      6.31372641	      0.00000000	    -34.77596884	     -7.71084288	    -10.20171458
      4.69000000	     11.08214443	     14.23149220	      7.57962001	      0.75934550	      0.75299856	     -0.28428047	     18.08494541	    -16.51645159	     -1.88388583	    -43.75023118	     23.63445493	     -9.73827258	      0.00000000	    -16.00365633	     17.48426900	     12.84187718	    -10.55082265	     25.50924818	      6.86938390	      0.00000000	    -35.02630051	     -7.69780216	    -11.03973736
      4.69500000	     11.09233808	     14.51799760	      8.04797508	      0.76630431	      0.75251523	     -0.28450656	     18.21555294	    -16.97721817	     -2.20476478	    -41.56107954	     23.75071598	     -9.16459273	      0.00000000	    -16.92425223	     17.45075104	     13.04956623	    -10.23203710	     25.80405380	      7.44400815	      0.00000000	    -35.24195764	     -7.74649455	    -11.89814382
      4.70000000	     11.09600486	     14.79791861	      8.52336325	      0.77330649	      0.75197835	     -0.28472508	     18.28061315	    -17.43333858	     -2.56705370	    -39.30750774	     23.86042715	     -8.46060415	      0.00000000	    -17.82882976	     17.39513746	     13.22925601	     -9.94111993	     26.11484581	      8.04058227	      0.00000000	    -35.44366953	     -7.78958310	    -12.72222313
      4.70500000	     11.05632125	     15.09695778	      9.02327109	      0.78033179	      0.75135644	     -0.28492027	     18.32798264	    -17.91047005	     -2.96316316	    -37.02056029	     23.92382618	     -7.71788651	      0.00000000	    -18.67029948	     17.34740431	     13.37661213	     -9.70483435	     26.42665432	      8.64748082	      0.00000000	    -35.60191717	     -7.85897174	    -13.57363377
      4.71000000	     11.03491284	     15.34584968	      9.51403952	      0.78742731	      0.75071790	     -0.28510510	     18.27859924	    -18.32960905	     -3.41634079	    -34.67389447	     24.01326396	     -6.72949400	      0.00000000	    -19.51217136	     17.23421692	     13.52868649	     -9.49612859	     26.76317154	      9.28684330	      0.00000000	    -35.75503486	     -7.88380364	    -14.31995653
